<?xml version="1.0" encoding="UTF-8" standalone="no"?>
<!-- Created with Inkscape (http://www.inkscape.org/) -->

<svg
   xmlns:dc="http://purl.org/dc/elements/1.1/"
   xmlns:cc="http://creativecommons.org/ns#"
   xmlns:rdf="http://www.w3.org/1999/02/22-rdf-syntax-ns#"
   xmlns:svg="http://www.w3.org/2000/svg"
   xmlns="http://www.w3.org/2000/svg"
   xmlns:xlink="http://www.w3.org/1999/xlink"
   xmlns:sodipodi="http://sodipodi.sourceforge.net/DTD/sodipodi-0.dtd"
   xmlns:inkscape="http://www.inkscape.org/namespaces/inkscape"
   width="1296.9375"
   height="1040"
   id="svg2"
   version="1.1"
   inkscape:version="0.48.4 r9939"
   sodipodi:docname="shirt1-mockup.svg"
   inkscape:export-filename="C:\Users\Ryan\Documents\GitHub\shirt-design\shirt1-mockup-green.png"
   inkscape:export-xdpi="90"
   inkscape:export-ydpi="90">
  <defs
     id="defs4">
    <inkscape:perspective
       id="perspective10"
       inkscape:persp3d-origin="350 : 185.32499 : 1"
       inkscape:vp_z="700 : 277.98749 : 1"
       inkscape:vp_y="0 : 1000 : 0"
       inkscape:vp_x="0 : 277.98749 : 1"
       sodipodi:type="inkscape:persp3d" />
  </defs>
  <sodipodi:namedview
     id="base"
     pagecolor="#ffffff"
     bordercolor="#666666"
     borderopacity="1.0"
     inkscape:pageopacity="0.0"
     inkscape:pageshadow="2"
     inkscape:zoom="0.7"
     inkscape:cx="661.3212"
     inkscape:cy="576.28285"
     inkscape:document-units="px"
     inkscape:current-layer="layer1"
     showgrid="false"
     fit-margin-top="20"
     fit-margin-left="20"
     fit-margin-right="20"
     fit-margin-bottom="20"
     inkscape:window-width="1366"
     inkscape:window-height="715"
     inkscape:window-x="-8"
     inkscape:window-y="-8"
     inkscape:window-maximized="1" />
  <metadata
     id="metadata7">
    <rdf:RDF>
      <cc:Work
         rdf:about="">
        <dc:format>image/svg+xml</dc:format>
        <dc:type
           rdf:resource="http://purl.org/dc/dcmitype/StillImage" />
        <dc:title></dc:title>
      </cc:Work>
    </rdf:RDF>
  </metadata>
  <g
     inkscape:label="shirt"
     inkscape:groupmode="layer"
     id="layer1"
     transform="translate(642.74782,-80.92733)">
    <g
       transform="translate(-623.81032,544.95858)"
       id="layer1-9"
       inkscape:label="Layer 1"
       style="fill:#445016"
       inkscape:export-xdpi="90"
       inkscape:export-ydpi="90">
      <path
         id="rect2160"
         d="M 304.08017,-439.68676 4.3382038,-93.504066 218.9715,51.696719 l 88.1133,-101.764648 0,601.704759 644.94493,0 0,-601.639433 88.04797,101.699322 214.6333,-145.200785 -299.67664,-346.182694 -3.00463,2.02482 0,-2.02482 -102.61377,0 c -42.68434,87.67458 -125.16409,147.09497 -219.85869,147.09497 -94.69457,-2e-5 -177.23967,-59.42039 -219.92399,-147.09497 l -102.54848,0 0,2.02482 -3.00463,-2.02482 z"
         style="fill:#445016;fill-opacity:1;stroke:#000000;stroke-width:8.67641354000000040;stroke-linecap:square;stroke-linejoin:bevel;stroke-miterlimit:3.50000000000000000;stroke-opacity:1;stroke-dasharray:none;stroke-dashoffset:0"
         inkscape:connector-curvature="0" />
      <path
         id="path3153"
         d="m 312.0132,246.59437 c -0.6844,-218.418489 -2.04555,-298.788204 -5.07772,-299.798717 -2.27832,-0.759278 -22.67478,20.069083 -45.32505,46.2854368 -22.6503,26.2163542 -42.65357,47.6660922 -44.4521,47.6660922 -1.7982,0 -48.33934,-30.471923 -103.42486,-67.71539 L 13.577948,-94.683687 160.50081,-264.45361 l 146.92321,-169.7701 49.33033,0.0778 49.33032,0.0778 12.78933,22.72926 c 15.59971,27.72437 60.44244,73.21565 88.39628,89.67546 35.05376,20.64003 69.75343,30.97279 110.13304,32.79465 46.21702,2.08532 72.47902,-3.32033 115.28166,-23.72894 28.35177,-13.51823 39.4606,-21.49571 64.30299,-46.1765 16.51687,-16.40939 35.73012,-39.70122 42.6963,-51.75975 l 12.66584,-21.92458 49.51338,-1.01343 49.51301,-1.01346 138.4402,159.90378 c 76.1419,87.9469 142.189,164.33894 146.7716,169.76006 l 8.3317,9.85656 -33.91,23.389447 c -18.6512,12.864353 -64.4659,44.03494 -101.8108,69.2680484 L 1041.2987,43.570959 999.57625,-5.1928617 c -23.5163,-27.4847743 -44.11484,-48.4094883 -47.204,-47.9517703 -4.81209,0.71291 -5.59516,37.273432 -6.41587,299.484642 l -0.93507,298.67264 -316.0367,0 -316.03669,0 -0.93472,-298.41828 z"
         style="fill:#445016;fill-opacity:0;fill-rule:evenodd;stroke:none"
         inkscape:connector-curvature="0" />
      <path
         id="path3155"
         d="m 312.0132,246.59437 c -0.6844,-218.418489 -2.04555,-298.788204 -5.07772,-299.798717 -2.27832,-0.759278 -22.67478,20.069083 -45.32505,46.2854368 -22.6503,26.2163542 -42.65357,47.6660922 -44.4521,47.6660922 -1.7982,0 -48.33934,-30.471923 -103.42486,-67.71539 L 13.577948,-94.683687 160.50081,-264.45361 l 146.92321,-169.7701 49.33033,0.0778 49.33032,0.0778 12.78933,22.72926 c 15.59971,27.72437 60.44244,73.21565 88.39628,89.67546 35.05376,20.64003 69.75343,30.97279 110.13304,32.79465 46.21702,2.08532 72.47902,-3.32033 115.28166,-23.72894 28.35177,-13.51823 39.4606,-21.49571 64.30299,-46.1765 16.51687,-16.40939 35.73012,-39.70122 42.6963,-51.75975 l 12.66584,-21.92458 49.51338,-1.01343 49.51301,-1.01346 138.4402,159.90378 c 76.1419,87.9469 142.189,164.33894 146.7716,169.76006 l 8.3317,9.85656 -33.91,23.389447 c -18.6512,12.864353 -64.4659,44.03494 -101.8108,69.2680484 L 1041.2987,43.570959 999.57625,-5.1928617 c -23.5163,-27.4847743 -44.11484,-48.4094883 -47.204,-47.9517703 -4.81209,0.71291 -5.59516,37.273432 -6.41587,299.484642 l -0.93507,298.67264 -316.0367,0 -316.03669,0 -0.93472,-298.41828 z"
         style="fill:#445016;fill-opacity:0;fill-rule:evenodd;stroke:none"
         inkscape:connector-curvature="0" />
      <path
         id="path3157"
         d="m 312.0132,246.59437 c -0.6844,-218.418489 -2.04555,-298.788204 -5.07772,-299.798717 -2.27832,-0.759278 -22.67478,20.069083 -45.32505,46.2854368 -22.6503,26.2163542 -42.65357,47.6660922 -44.4521,47.6660922 -1.7982,0 -48.33934,-30.471923 -103.42486,-67.71539 L 13.577948,-94.683687 160.50081,-264.45361 l 146.92321,-169.7701 49.33033,0.0778 49.33032,0.0778 12.78933,22.72926 c 15.59971,27.72437 60.44244,73.21565 88.39628,89.67546 35.05376,20.64003 69.75343,30.97279 110.13304,32.79465 46.21702,2.08532 72.47902,-3.32033 115.28166,-23.72894 28.35177,-13.51823 39.4606,-21.49571 64.30299,-46.1765 16.51687,-16.40939 35.73012,-39.70122 42.6963,-51.75975 l 12.66584,-21.92458 49.51338,-1.01343 49.51301,-1.01346 138.4402,159.90378 c 76.1419,87.9469 142.189,164.33894 146.7716,169.76006 l 8.3317,9.85656 -33.91,23.389447 c -18.6512,12.864353 -64.4659,44.03494 -101.8108,69.2680484 L 1041.2987,43.570959 999.57625,-5.1928617 c -23.5163,-27.4847743 -44.11484,-48.4094883 -47.204,-47.9517703 -4.81209,0.71291 -5.59516,37.273432 -6.41587,299.484642 l -0.93507,298.67264 -316.0367,0 -316.03669,0 -0.93472,-298.41828 z"
         style="fill:#445016;fill-opacity:0;fill-rule:evenodd;stroke:none"
         inkscape:connector-curvature="0" />
      <path
         id="path3159"
         d="m 312.90517,247.99945 c 0,-250.0841688 -0.8229,-299.560845 -5.00904,-301.16714 -4.05604,-1.556545 -57.67481,55.9166769 -85.17482,91.297632 -3.68515,4.740896 -19.21653,-4.522505 -106.70074,-63.639145 L 13.632394,-94.696835 159.67096,-263.37525 l 146.03856,-168.6784 50.75249,0 50.75213,0 11.74355,21.01106 c 6.58614,11.78366 25.66271,34.65155 43.43808,52.07089 49.62812,48.63399 100.82971,70.36276 166.58884,70.69615 39.38459,0.19959 64.39981,-5.25481 98.66065,-21.5128 46.98,-22.29358 90.01466,-61.74789 114.42404,-104.90461 l 9.81526,-17.35335 51.15737,0.11219 51.15736,0.11221 145.37611,168.27872 145.376,168.278722 -13.8285,9.906918 c -14.8956,10.671432 -179.1363,121.713024 -186.1565,125.858767 -2.5883,1.52845 -20.8193,-16.640061 -46.8032,-46.643006 -28.20669,-32.568977 -44.34064,-48.464779 -47.8314,-47.125222 -4.52852,1.737703 -5.26774,44.0322777 -5.26774,301.266461 l 0,299.24504 -316.07945,0 -316.07944,0 0,-299.24504 z"
         style="fill:#445016;fill-opacity:0;fill-rule:evenodd;stroke:none"
         inkscape:connector-curvature="0" />
      <path
         id="path3161"
         d="m 312.90517,247.99945 c 0,-250.0841688 -0.8229,-299.560845 -5.00904,-301.16714 -4.05604,-1.556545 -57.67481,55.9166769 -85.17482,91.297632 -3.68515,4.740896 -19.21653,-4.522505 -106.70074,-63.639145 L 13.632394,-94.696835 159.67096,-263.37525 l 146.03856,-168.6784 50.75249,0 50.75213,0 11.74355,21.01106 c 6.58614,11.78366 25.66271,34.65155 43.43808,52.07089 49.62812,48.63399 100.82971,70.36276 166.58884,70.69615 39.38459,0.19959 64.39981,-5.25481 98.66065,-21.5128 46.98,-22.29358 90.01466,-61.74789 114.42404,-104.90461 l 9.81526,-17.35335 51.15737,0.11219 51.15736,0.11221 145.37611,168.27872 145.376,168.278722 -13.8285,9.906918 c -14.8956,10.671432 -179.1363,121.713024 -186.1565,125.858767 -2.5883,1.52845 -20.8193,-16.640061 -46.8032,-46.643006 -28.20669,-32.568977 -44.34064,-48.464779 -47.8314,-47.125222 -4.52852,1.737703 -5.26774,44.0322777 -5.26774,301.266461 l 0,299.24504 -316.07945,0 -316.07944,0 0,-299.24504 z"
         style="fill:#445016;fill-opacity:0;fill-rule:evenodd;stroke:none"
         inkscape:connector-curvature="0" />
    </g>
  </g>
  <g
     inkscape:groupmode="layer"
     id="layer2"
     inkscape:label="streets"
     sodipodi:insensitive="true">
    <g
       id="g3032"
       transform="matrix(0.72630174,0,0,0.72630174,165.59746,249.86114)">
      <path
         id="path3034"
         d="m 874,266 -27,26 38,17 2,18 -51.91378,-26.86786 c -9.87482,-0.38449 -10.77209,-0.17815 -18.56326,0.43674 L 799.25868,298.09184 781,293.70102 760.13214,283.83316 741.69541,272.61479 719,384 l 25,-1 27,2 15,3 16,4 31,15 14,-17 40,-38 -2,20 -1,3 -28,28 -10,12 20,17 -8,14 -17,-15 -20,-13 -22,-10 -29,-6 -27,-2 -27,2 -22,99 -9,50 -14,0 8,-46 -82,-32 -51,-22 -22,-21 -18,-25 -5,-3 -2,7 -14,25 -8,-16 12,-24 -23,-15 -3,-21 25,16 2,-11 6,-9 36,-34 48,-42 -68,-76 10,-12 17,20 73,-65 2,-3 -2,-6 4,-2 9,-2 2,6 0,8 -6,12 -72,63 42,47 66,-60 40,-40 -18,-42 16,1 12,31 26,-24 17,5 -37,34 27,70 42,-37 21,-7 3,0 5,4 1,4 -2,6 -3,3 -22,7 -36,33 9.86786,11.25867 14.69541,9.3046 19.78163,6.60918 19.17245,4.39082 19.08622,-0.60919 37.35051,-38.82755 z m -169,118 24,-109 2,-18 -28,-73 -38,38 -64,58 75,85 11,11 13,7 z m -3,17 -22,-10 -13,-13 -77,-88 -74,65 -14,16 0,12 12,8 9,10 17,24 12,10 49,22 82,31 z"
         class="leaflet-clickable"
         inkscape:connector-curvature="0"
         style="fill:#ffffff;fill-opacity:1;fill-rule:evenodd;stroke:none"
         sodipodi:nodetypes="cccccccccccccccccccccccccccccccccccccccccccccccccccccccccccccccccccccccccccccccccccccccccccccccccccccccccccccccc" />
    </g>
    <text
       xml:space="preserve"
       style="font-size:28px;font-style:normal;font-variant:normal;font-weight:normal;font-stretch:normal;line-height:125%;letter-spacing:0px;word-spacing:0px;fill:#000000;fill-opacity:1;stroke:none;font-family:Segoe UI Emoji;-inkscape-font-specification:Segoe UI Emoji"
       x="468.57144"
       y="454.28571"
       id="text3814"
       sodipodi:linespacing="125%"><tspan
         sodipodi:role="line"
         id="tspan3816"
         x="468.57144"
         y="454.28571" /></text>
  </g>
  <g
     inkscape:groupmode="layer"
     id="layer6"
     inkscape:label="circle"
     sodipodi:insensitive="true">
    <path
       sodipodi:type="arc"
       style="color:#000000;fill:#ffffff;fill-opacity:0;fill-rule:nonzero;stroke:#ffffff;stroke-width:4;stroke-linecap:round;stroke-linejoin:miter;stroke-miterlimit:4;stroke-opacity:1;stroke-dasharray:none;stroke-dashoffset:0;marker:none;visibility:visible;display:inline;overflow:visible;enable-background:accumulate"
       id="path3010"
       sodipodi:cx="379.81735"
       sodipodi:cy="603.61407"
       sodipodi:rx="62.629456"
       sodipodi:ry="62.629456"
       d="m 442.44681,603.61407 a 62.629456,62.629456 0 1 1 -125.25891,0 62.629456,62.629456 0 1 1 125.25891,0 z"
       transform="matrix(2.4358956,0,0,2.4358956,-267.91012,-975.6982)" />
  </g>
  <g
     inkscape:groupmode="layer"
     id="layer3"
     inkscape:label="text"
     sodipodi:insensitive="true">
    <text
       xml:space="preserve"
       style="font-size:64px;font-style:normal;font-variant:normal;font-weight:normal;font-stretch:normal;text-align:start;line-height:125%;letter-spacing:0px;word-spacing:0px;writing-mode:lr-tb;text-anchor:start;fill:#ffffff;fill-opacity:1;stroke:none;font-family:Miniver;-inkscape-font-specification:Miniver"
       id="text3818"
       sodipodi:linespacing="125%"
       transform="matrix(0.98061466,-0.19594614,0.19594614,0.98061466,-78.159262,115.95121)"><textPath
         xlink:href="#path3826"
         id="textPath3869"><tspan
   id="tspan3820"
   style="font-size:64px;font-style:normal;font-variant:normal;font-weight:normal;font-stretch:normal;text-align:start;line-height:125%;writing-mode:lr-tb;text-anchor:start;fill:#ffffff;font-family:Miniver;-inkscape-font-specification:Miniver">Where My Pitches At?</tspan></textPath></text>
    <path
       style="color:#000000;fill:#ffffff;fill-opacity:0;fill-rule:nonzero;stroke:none;stroke-width:0.5;marker:none;visibility:visible;display:inline;overflow:visible;enable-background:accumulate"
       d="m 482.85714,494.28569 c 0,-93.09943 75.472,-168.57143 168.57142,-168.57143 93.09943,0 168.57143,75.472 168.57143,168.57143 0,93.09943 -75.472,168.57143 -168.57143,168.57143 -93.09942,0 -168.57142,-75.472 -168.57142,-168.57143 z"
       id="path3826"
       inkscape:connector-curvature="0" />
  </g>
  <g
     inkscape:groupmode="layer"
     id="layer5"
     inkscape:label="cci text"
     sodipodi:insensitive="true">
    <text
       xml:space="preserve"
       style="font-size:20px;font-style:normal;font-variant:normal;font-weight:normal;font-stretch:normal;text-align:center;line-height:125%;letter-spacing:0px;word-spacing:0px;text-anchor:middle;fill:#ffffff;fill-opacity:1;stroke:none;font-family:Special Elite;-inkscape-font-specification:Special Elite"
       x="655.36682"
       y="680.32465"
       id="text3772"
       sodipodi:linespacing="125%"><tspan
         sodipodi:role="line"
         id="tspan3774"
         x="655.36682"
         y="680.32465">Chevy Chase Inn   -   833 Euclid Ave</tspan></text>
  </g>
  <g
     inkscape:groupmode="layer"
     id="layer7"
     inkscape:label="street text">
    <text
       xml:space="preserve"
       style="font-size:18px;font-style:normal;font-variant:normal;font-weight:normal;font-stretch:normal;line-height:125%;letter-spacing:0px;word-spacing:0px;fill:#ffffff;fill-opacity:1;stroke:none;font-family:Special Elite;-inkscape-font-specification:Special Elite"
       id="text3781"
       sodipodi:linespacing="125%"><textPath
         xlink:href="#path3798"
         id="textPath3800"><tspan
   id="tspan3783">Euclid Ave</tspan></textPath></text>
    <path
       style="fill:none;stroke:none"
       d="m 583.53553,473.67912 c 48.22075,55.28797 61.00668,70.43504 83.60732,77.33103"
       id="path3798"
       inkscape:connector-curvature="0"
       sodipodi:nodetypes="cc" />
    <text
       xml:space="preserve"
       style="font-size:18px;font-style:normal;font-variant:normal;font-weight:normal;font-stretch:normal;line-height:125%;letter-spacing:0px;word-spacing:0px;fill:#ffffff;fill-opacity:1;stroke:none;font-family:Special Elite;-inkscape-font-specification:Special Elite"
       x="310.32199"
       y="-785.03461"
       id="text3803"
       sodipodi:linespacing="125%"
       transform="matrix(-0.1952311,0.98075727,-0.98075727,-0.1952311,0,0)"><tspan
         sodipodi:role="line"
         id="tspan3805"
         x="310.32199"
         y="-785.03461">High St</tspan></text>
  </g>
  <g
     inkscape:groupmode="layer"
     id="layer4"
     inkscape:label="star"
     sodipodi:insensitive="true">
    <path
       sodipodi:type="star"
       style="color:#000000;fill:#ffffff;fill-opacity:1;fill-rule:nonzero;stroke:none;stroke-width:0.5;marker:none;visibility:visible;display:inline;overflow:visible;enable-background:accumulate"
       id="path3769"
       sodipodi:sides="5"
       sodipodi:cx="642.45703"
       sodipodi:cy="468.25366"
       sodipodi:r1="79.024666"
       sodipodi:r2="39.512333"
       sodipodi:arg1="0.52359878"
       sodipodi:arg2="1.1519173"
       inkscape:flatsided="false"
       inkscape:rounded="0"
       inkscape:randomized="0"
       d="m 710.8944,507.766 -52.36625,-3.41603 -32.50127,41.20148 -12.93323,-50.85888 -49.22838,-18.17858 44.37308,-28.01649 2.07645,-52.43646 40.35731,33.54373 50.51169,-14.22893 -19.43089,48.74766 z"
       transform="matrix(0.1867464,0.07944266,-0.07944266,0.1867464,577.98941,355.06039)" />
  </g>
</svg>
