<svg version="1.1" xmlns="http://www.w3.org/2000/svg" viewBox="463 126 424 425" height="425" width="424" style="transform: translate(0, 0);"><g><path stroke-linejoin="round" stroke-linecap="round" fill-rule="evenodd" stroke="black" stroke-opacity="1" stroke-width="3" fill="black" fill-opacity="0.2" class="leaflet-clickable" d="M874 266L847 292L885 309L887 327L833 305L827 309L820 311L793 312L781 309L765 304L741 290L719 384L744 383L771 385L786 388L802 392L833 407L847 390L887 352L885 372L884 375L856 403L846 415L866 432L858 446L841 431L821 418L799 408L770 402L743 400L716 402L694 501L685 551L671 551L679 505L597 473L546 451L524 430L506 405L501 402L499 409L485 434L477 418L489 394L466 379L463 358L488 374L490 363L496 354L532 320L580 278L512 202L522 190L539 210L612 145L614 142L612 136L616 134L625 132L627 138L627 146L621 158L549 221L591 268L657 208L697 168L679 126L695 127L707 158L733 134L750 139L713 173L740 243L782 206L803 199L806 199L811 203L812 207L810 213L807 216L785 223L749 256L754 261L768 271L785 279L800 282L817 280L862 237L874 266zM747 275L743 272zM705 384L729 275L731 257L703 184L665 222L601 280L676 365L687 376L700 383zM702 401L680 391L667 378L590 290L516 355L502 371L502 383L514 391L523 401L540 425L552 435L601 457L683 488z"></path></g></svg>